<svg width="392" height="35" viewBox="0 0 392 35" fill="none" xmlns="http://www.w3.org/2000/svg">
<g opacity="0.3">
<path d="M310.539 2.56702C298.208 -2.85318 284.069 3.55643 270.619 3.0689C264.912 2.85381 259.32 1.39121 253.656 0.616893C241.898 -0.974753 229.738 0.530872 218.726 4.93299C214.28 6.71105 209.993 8.9623 205.347 10.1381C194.478 12.8912 183.064 9.4785 171.851 9.72227C165.198 9.86566 158.659 11.2852 152.049 12.0452C132.519 14.2964 112.817 10.7117 93.5591 6.71103C81.6433 4.2447 72.5236 3.9866 60.7798 6.85443C52.3914 8.90493 41.7374 10.0808 33.1483 8.67551C23.0822 7.02651 14.3353 7.39933 4.24051 9.10569C1.50174 9.56455 -1.91098 11.3713 1.30096 13.981C2.83527 15.2285 4.9718 15.8308 6.92191 15.9168C10.8078 16.0745 14.5503 14.6119 18.3789 14.024C26.5235 12.7765 34.3527 15.4723 42.3253 16.5334C49.5379 17.4797 57.3527 13.8519 64.3216 16.1462C73.7997 19.2578 76.5242 22.8569 86.9201 20.7491C96.9431 18.7129 107.267 18.1824 117.434 19.1861C130.64 20.491 143.904 24.3625 156.953 21.9966C161.885 21.1076 166.832 19.3295 171.794 20.0465C177.486 20.8638 182.161 24.8071 187.28 27.4311C196.715 32.2634 207.799 32.6362 218.353 31.6325C230.469 30.4854 242.371 28.3058 254.574 28.1194C271.336 27.8613 287.855 31.6899 304.517 33.4966C333.582 36.6512 362.92 33.683 392 30.7291" fill="white"/>
</g>
</svg>
