<svg width="45" height="44" viewBox="0 0 45 44" fill="none" xmlns="http://www.w3.org/2000/svg">
<path d="M36.811 18.4185C37.2682 17.1486 38.1526 17.0769 38.4622 17.3349C39.0298 17.6961 38.7202 18.8313 38.3074 19.3989C37.7445 20.1729 36.3466 19.7085 36.811 18.4185Z" fill="white"/>
<path d="M31.1351 17.4381C26.6356 16.4061 25.2011 18.6404 24.7367 19.7085C23.7047 22.0821 25.9751 24.5589 26.4395 28.5321C26.9039 32.5053 24.8399 35.7045 23.9627 37.7684C23.0855 39.8324 24.5819 43.6508 28.7099 43.238C32.8379 42.8252 32.7347 38.1296 32.8379 34.1565C32.9411 30.1833 36.5531 25.4877 36.6563 23.6301C36.7595 21.7725 36.7595 18.7281 31.1351 17.4381Z" fill="white"/>
<path d="M24.3239 12.6394C24.5716 11.4422 25.4247 10.971 25.8203 10.885C27.6263 10.627 27.9875 13.4134 27.9875 13.8778C27.9875 14.3422 28.0907 16.3029 26.2847 16.4061C24.4787 16.5093 24.0143 14.1358 24.3239 12.6394Z" fill="white"/>
<path d="M28.452 13.0522C28.6997 11.6486 29.5872 11.2978 30 11.2978C30.5676 11.2978 31.3932 11.8654 31.5996 13.465C31.806 15.0645 31.1352 16.0449 30 15.9933C28.8648 15.9417 28.1424 14.8065 28.452 13.0522Z" fill="white"/>
<path d="M32.1154 13.8777C32.3218 12.3504 33.2506 12.1749 33.7666 12.1749C34.5406 12.1749 35.0566 13.3101 34.9534 14.7549C34.8502 16.1997 33.973 16.5093 33.2506 16.4577C32.5282 16.4061 31.8575 15.7869 32.1154 13.8777Z" fill="white"/>
<path d="M35.1599 15.6321C35.5315 14.2286 36.4155 14.153 36.8111 14.2906C37.3157 14.466 37.7399 15.3225 37.3787 16.5609C36.9627 17.9872 36.0887 17.7993 35.7276 17.7477C35.3664 17.6961 34.7639 17.1285 35.1599 15.6321Z" fill="white"/>
<path d="M7.48858 8.4821C7.03141 7.21222 6.147 7.14051 5.83739 7.39851C5.26981 7.75971 5.57938 8.8949 5.99219 9.4625C6.5551 10.2365 7.953 9.7721 7.48858 8.4821Z" fill="white"/>
<path d="M13.1645 7.50173C17.664 6.46974 19.0984 8.70399 19.5628 9.77211C20.5948 12.1457 18.3244 14.6225 17.86 18.5957C17.3956 22.5689 19.4596 25.7681 20.3368 27.832C21.214 29.896 19.7176 33.7144 15.5897 33.3016C11.4617 32.8888 11.5649 28.1932 11.4617 24.2201C11.3585 20.2469 7.74649 15.5513 7.64329 13.6937C7.54009 11.8361 7.54009 8.79173 13.1645 7.50173Z" fill="white"/>
<path d="M19.9757 2.70296C19.728 1.50584 18.8749 1.03456 18.4793 0.948563C16.6733 0.690564 16.3121 3.47695 16.3121 3.94135C16.3121 4.40575 16.2089 6.36654 18.0149 6.46974C19.8209 6.57294 20.2853 4.19935 19.9757 2.70296Z" fill="white"/>
<path d="M15.8475 3.11575C15.5998 1.71224 14.7123 1.36136 14.2995 1.36136C13.7319 1.36136 12.9063 1.92896 12.6999 3.52855C12.4935 5.12814 13.1643 6.10854 14.2995 6.05694C15.4347 6.00534 16.1571 4.87014 15.8475 3.11575Z" fill="white"/>
<path d="M12.1841 3.94135C11.9777 2.414 11.0489 2.23856 10.5329 2.23856C9.75893 2.23856 9.24293 3.37375 9.34613 4.81854C9.44933 6.26334 10.3265 6.57294 11.0489 6.52134C11.7713 6.46974 12.4421 5.85054 12.1841 3.94135Z" fill="white"/>
<path d="M9.13961 5.69575C8.7681 4.29223 7.88402 4.21655 7.48842 4.35415C6.98391 4.52963 6.55962 5.38614 6.92082 6.62454C7.33681 8.05079 8.21081 7.86293 8.57201 7.81134C8.93321 7.75974 9.53571 7.19214 9.13961 5.69575Z" fill="white"/>
</svg>
